<?xml version="1.0" encoding="UTF-8" standalone="no"?>
<!-- Generator: Adobe Illustrator 16.0.4, SVG Export Plug-In . SVG Version: 6.00 Build 0)  -->

<svg
   version="1.1"
   id="Layer_1"
   x="0px"
   y="0px"
   width="344.00092"
   height="344"
   viewBox="0 0 344.00091 343.99999"
   enable-background="new 0 0 306 344.35"
   xml:space="preserve"
   sodipodi:docname="mp-units-bg-color.svg"
   inkscape:version="1.3.2 (091e20e, 2023-11-25, custom)"
   xmlns:inkscape="http://www.inkscape.org/namespaces/inkscape"
   xmlns:sodipodi="http://sodipodi.sourceforge.net/DTD/sodipodi-0.dtd"
   xmlns="http://www.w3.org/2000/svg"
   xmlns:svg="http://www.w3.org/2000/svg"><defs
   id="defs6" /><sodipodi:namedview
   id="namedview6"
   pagecolor="#9f9f9f"
   bordercolor="#000000"
   borderopacity="0.25"
   inkscape:showpageshadow="2"
   inkscape:pageopacity="0.0"
   inkscape:pagecheckerboard="0"
   inkscape:deskcolor="#d1d1d1"
   inkscape:zoom="2.8284271"
   inkscape:cx="101.29305"
   inkscape:cy="179.7819"
   inkscape:window-width="2560"
   inkscape:window-height="1377"
   inkscape:window-x="2552"
   inkscape:window-y="714"
   inkscape:window-maximized="1"
   inkscape:current-layer="Layer_1" />





<path
   id="path1-4"
   d="m 99.039514,0 c -4.20373,0 -8.88428,1.674718 -13.03906,4.375005 -4.155779,2.700277 -7.784849,6.424133 -9.886719,10.519532 L 3.1527938,157.10547 c -4.2037251,8.19191 -4.2037251,21.59714 0,29.78906 L 76.113735,329.10547 C 80.316465,337.29851 90.633054,344 99.039514,344 H 244.96139 c 4.20373,0 8.88428,-1.67667 13.03906,-4.37695 L 172.00045,172 258.0024,339.62305 c 4.15478,-2.69916 7.7839,-6.42219 9.88477,-10.51758 L 340.8481,186.89453 c 4.20374,-8.19192 4.20374,-21.59715 0,-29.78906 L 267.88717,14.894537 C 265.7853,10.798014 262.15623,7.076114 258.00045,4.37695 253.84567,1.677798 249.16512,0 244.96139,0 Z"
   style="fill:#00599c;fill-opacity:1;stroke-width:1.05974"
   inkscape:label="background" />
<path
   id="path1-8"
   style="fill:#ffffff;fill-opacity:1;stroke-width:1.95359"
   d="M 71.640629,81.420186 V 197.27956 h 0.04883 a 101.84673,101.84673 0 0 0 50.875001,87.46679 101.84673,101.84673 0 0 0 101.8457,0 101.84673,101.84673 0 0 0 50.875,-87.46679 h 0.0488 V 196.54518 81.420186 h -52.6289 V 196.54518 a 49.217453,49.217453 0 0 1 -24.60938,42.62305 49.217453,49.217453 0 0 1 -49.21679,0 49.217453,49.217453 0 0 1 -24.60938,-42.62305 h -0.002 V 81.420186 Z"
   inkscape:label="U" /><polygon
   fill="#ffffff"
   points="232.334,189.175 243.666,189.175 243.666,177.841 255,177.841 255,166.508 243.666,166.508 243.666,155.175 232.334,155.175 232.334,166.508 221,166.508 221,177.841 232.334,177.841 "
   id="polygon4"
   style="fill:#ffffff;fill-opacity:1"
   transform="matrix(0,-1.4985337,1.331647,0,-55.789031,469.68329)"
   inkscape:label="plus-lower" /><polygon
   fill="#ffffff"
   points="274.834,189.175 286.166,189.175 286.166,177.841 297.5,177.841 297.5,166.508 286.166,166.508 286.166,155.175 274.834,155.175 274.834,166.508 263.5,166.508 263.5,177.841 274.834,177.841 "
   id="polygon5"
   style="fill:#ffffff;fill-opacity:1"
   transform="matrix(0,-1.4985336,1.3316471,0,-55.789037,469.6833)"
   inkscape:label="plus-higher" /></svg>
