<?xml version="1.0" encoding="UTF-8" standalone="no"?>
<!-- Generator: Adobe Illustrator 16.0.4, SVG Export Plug-In . SVG Version: 6.00 Build 0)  -->

<svg
   version="1.1"
   id="Layer_1"
   x="0px"
   y="0px"
   width="344.00092"
   height="344"
   viewBox="0 0 344.00091 343.99999"
   enable-background="new 0 0 306 344.35"
   xml:space="preserve"
   sodipodi:docname="mp-units-bg-transparent.svg"
   inkscape:version="1.3.2 (091e20e, 2023-11-25, custom)"
   xmlns:inkscape="http://www.inkscape.org/namespaces/inkscape"
   xmlns:sodipodi="http://sodipodi.sourceforge.net/DTD/sodipodi-0.dtd"
   xmlns="http://www.w3.org/2000/svg"
   xmlns:svg="http://www.w3.org/2000/svg"><defs
   id="defs6" /><sodipodi:namedview
   id="namedview6"
   pagecolor="#9f9f9f"
   bordercolor="#000000"
   borderopacity="0.25"
   inkscape:showpageshadow="2"
   inkscape:pageopacity="0.0"
   inkscape:pagecheckerboard="0"
   inkscape:deskcolor="#d1d1d1"
   inkscape:zoom="2.8284271"
   inkscape:cx="101.29305"
   inkscape:cy="179.7819"
   inkscape:window-width="2560"
   inkscape:window-height="1377"
   inkscape:window-x="2552"
   inkscape:window-y="714"
   inkscape:window-maximized="1"
   inkscape:current-layer="Layer_1" />





<path
   id="path1-4"
   style="fill:#00599c;fill-opacity:1;stroke-width:1.05974"
   d="M 99.039062 0 C 94.835347 0 90.154768 1.6747211 86 4.375 C 81.844233 7.0752689 78.215145 10.799144 76.113281 14.894531 L 3.1523438 157.10547 C -1.0513687 165.29735 -1.0513687 178.70264 3.1523438 186.89453 L 76.113281 329.10547 C 80.315999 337.29848 90.632629 344 99.039062 344 L 244.96094 344 C 249.16464 344 253.84522 342.3233 258 339.62305 L 228.4375 282.00195 A 101.84673 101.84673 0 0 1 224.41016 284.74609 A 101.84673 101.84673 0 0 1 122.56445 284.74609 A 101.84673 101.84673 0 0 1 71.689453 197.2793 L 71.640625 197.2793 L 71.640625 81.419922 L 124.26758 81.419922 L 124.26758 196.54492 L 124.26953 196.54492 A 49.217453 49.217453 0 0 0 148.87891 239.16797 A 49.217453 49.217453 0 0 0 198.0957 239.16797 A 49.217453 49.217453 0 0 0 204.18945 234.74023 A 49.217453 49.217453 0 0 0 222.70508 196.54492 L 222.70508 81.419922 L 275.33398 81.419922 L 275.33398 196.54492 L 275.33398 197.2793 L 275.28516 197.2793 A 101.84673 101.84673 0 0 1 228.4375 282 L 228.4375 282.00195 L 258.00195 339.62305 C 262.15673 336.92389 265.78585 333.20083 267.88672 329.10547 L 340.84766 186.89453 C 345.05137 178.70264 345.05137 165.29735 340.84766 157.10547 L 267.88672 14.894531 C 265.78485 10.79802 262.15578 7.076109 258 4.3769531 C 253.84522 1.6778092 249.16464 -2.9605918e-15 244.96094 0 L 99.039062 0 z M 165.94141 23.869141 L 181.0332 23.869141 L 181.0332 40.853516 L 196.125 40.853516 L 196.125 57.835938 L 181.0332 57.835938 L 181.0332 74.820312 L 165.94141 74.820312 L 165.94141 57.835938 L 150.84961 57.835938 L 150.84961 40.853516 L 165.94141 40.853516 L 165.94141 23.869141 z M 165.94141 87.556641 L 181.0332 87.556641 L 181.0332 104.54102 L 196.125 104.54102 L 196.125 121.52344 L 181.0332 121.52344 L 181.0332 138.50781 L 165.94141 138.50781 L 165.94141 121.52344 L 150.84961 121.52344 L 150.84961 104.54102 L 165.94141 104.54102 L 165.94141 87.556641 z " />
</svg>
